<mxfile host="Electron" modified="2024-01-17T23:49:58.381Z" agent="Mozilla/5.0 (X11; Linux x86_64) AppleWebKit/537.36 (KHTML, like Gecko) draw.io/22.1.18 Chrome/120.0.6099.199 Electron/28.1.2 Safari/537.36" etag="rxhBD0C1LEP1ytFJtcd0" version="22.1.18" type="device">
  <diagram name="Page-1" id="IItcqht9Zv7IeJ6Osstn">
    <mxGraphModel dx="2920" dy="1894" grid="1" gridSize="10" guides="1" tooltips="1" connect="1" arrows="1" fold="1" page="1" pageScale="1" pageWidth="850" pageHeight="1100" math="0" shadow="0">
      <root>
        <mxCell id="0" />
        <mxCell id="1" parent="0" />
        <mxCell id="_Q96MDX6_ETK-nk5UA62-1" value="" style="rounded=0;whiteSpace=wrap;html=1;direction=south;" parent="1" vertex="1">
          <mxGeometry x="120" y="240" width="40" height="120" as="geometry" />
        </mxCell>
        <mxCell id="_Q96MDX6_ETK-nk5UA62-2" value="" style="rounded=0;whiteSpace=wrap;html=1;direction=south;" parent="1" vertex="1">
          <mxGeometry x="160" y="240" width="40" height="120" as="geometry" />
        </mxCell>
        <mxCell id="_Q96MDX6_ETK-nk5UA62-3" value="" style="rounded=0;whiteSpace=wrap;html=1;direction=south;" parent="1" vertex="1">
          <mxGeometry x="200" y="240" width="40" height="120" as="geometry" />
        </mxCell>
        <mxCell id="_Q96MDX6_ETK-nk5UA62-4" value="" style="rounded=0;whiteSpace=wrap;html=1;direction=south;" parent="1" vertex="1">
          <mxGeometry x="240" y="240" width="40" height="120" as="geometry" />
        </mxCell>
        <mxCell id="_Q96MDX6_ETK-nk5UA62-5" value="" style="rounded=0;whiteSpace=wrap;html=1;direction=south;" parent="1" vertex="1">
          <mxGeometry x="280" y="240" width="40" height="120" as="geometry" />
        </mxCell>
        <mxCell id="_Q96MDX6_ETK-nk5UA62-6" value="" style="rounded=0;whiteSpace=wrap;html=1;direction=south;" parent="1" vertex="1">
          <mxGeometry x="320" y="240" width="40" height="120" as="geometry" />
        </mxCell>
        <mxCell id="_Q96MDX6_ETK-nk5UA62-7" value="" style="rounded=0;whiteSpace=wrap;html=1;direction=south;" parent="1" vertex="1">
          <mxGeometry x="360" y="240" width="40" height="120" as="geometry" />
        </mxCell>
        <mxCell id="_Q96MDX6_ETK-nk5UA62-8" value="" style="rounded=0;whiteSpace=wrap;html=1;direction=south;" parent="1" vertex="1">
          <mxGeometry x="400" y="240" width="40" height="120" as="geometry" />
        </mxCell>
        <mxCell id="_Q96MDX6_ETK-nk5UA62-9" value="" style="rounded=0;whiteSpace=wrap;html=1;direction=south;" parent="1" vertex="1">
          <mxGeometry x="440" y="240" width="40" height="120" as="geometry" />
        </mxCell>
        <mxCell id="_Q96MDX6_ETK-nk5UA62-10" value="" style="rounded=0;whiteSpace=wrap;html=1;direction=south;" parent="1" vertex="1">
          <mxGeometry x="480" y="240" width="40" height="120" as="geometry" />
        </mxCell>
        <mxCell id="_Q96MDX6_ETK-nk5UA62-11" value="" style="rounded=0;whiteSpace=wrap;html=1;direction=south;" parent="1" vertex="1">
          <mxGeometry x="520" y="240" width="40" height="120" as="geometry" />
        </mxCell>
        <mxCell id="_Q96MDX6_ETK-nk5UA62-12" value="" style="rounded=0;whiteSpace=wrap;html=1;direction=south;" parent="1" vertex="1">
          <mxGeometry x="560" y="240" width="40" height="120" as="geometry" />
        </mxCell>
        <mxCell id="_Q96MDX6_ETK-nk5UA62-13" value="" style="rounded=0;whiteSpace=wrap;html=1;direction=south;" parent="1" vertex="1">
          <mxGeometry x="600" y="240" width="40" height="120" as="geometry" />
        </mxCell>
        <mxCell id="_Q96MDX6_ETK-nk5UA62-14" value="" style="rounded=0;whiteSpace=wrap;html=1;direction=south;" parent="1" vertex="1">
          <mxGeometry x="640" y="240" width="40" height="120" as="geometry" />
        </mxCell>
        <mxCell id="_Q96MDX6_ETK-nk5UA62-15" value="" style="rounded=0;whiteSpace=wrap;html=1;direction=south;" parent="1" vertex="1">
          <mxGeometry x="680" y="240" width="40" height="120" as="geometry" />
        </mxCell>
        <mxCell id="_Q96MDX6_ETK-nk5UA62-16" value="" style="rounded=0;whiteSpace=wrap;html=1;direction=south;" parent="1" vertex="1">
          <mxGeometry x="720" y="240" width="40" height="120" as="geometry" />
        </mxCell>
        <mxCell id="_Q96MDX6_ETK-nk5UA62-17" value="" style="rounded=0;whiteSpace=wrap;html=1;direction=south;" parent="1" vertex="1">
          <mxGeometry x="760" y="240" width="40" height="120" as="geometry" />
        </mxCell>
        <mxCell id="_Q96MDX6_ETK-nk5UA62-18" value="" style="rounded=0;whiteSpace=wrap;html=1;direction=south;" parent="1" vertex="1">
          <mxGeometry x="800" y="240" width="40" height="120" as="geometry" />
        </mxCell>
        <mxCell id="_Q96MDX6_ETK-nk5UA62-19" value="" style="rounded=0;whiteSpace=wrap;html=1;direction=south;" parent="1" vertex="1">
          <mxGeometry x="840" y="240" width="40" height="120" as="geometry" />
        </mxCell>
        <mxCell id="_Q96MDX6_ETK-nk5UA62-20" value="" style="rounded=0;whiteSpace=wrap;html=1;direction=south;" parent="1" vertex="1">
          <mxGeometry x="880" y="240" width="40" height="120" as="geometry" />
        </mxCell>
        <mxCell id="_Q96MDX6_ETK-nk5UA62-21" value="" style="rounded=0;whiteSpace=wrap;html=1;direction=south;" parent="1" vertex="1">
          <mxGeometry x="920" y="240" width="40" height="120" as="geometry" />
        </mxCell>
        <mxCell id="_Q96MDX6_ETK-nk5UA62-22" value="" style="rounded=0;whiteSpace=wrap;html=1;direction=south;" parent="1" vertex="1">
          <mxGeometry x="960" y="240" width="40" height="120" as="geometry" />
        </mxCell>
        <mxCell id="_Q96MDX6_ETK-nk5UA62-23" value="" style="rounded=0;whiteSpace=wrap;html=1;direction=south;" parent="1" vertex="1">
          <mxGeometry x="1000" y="240" width="40" height="120" as="geometry" />
        </mxCell>
        <mxCell id="_Q96MDX6_ETK-nk5UA62-24" value="" style="rounded=0;whiteSpace=wrap;html=1;direction=south;" parent="1" vertex="1">
          <mxGeometry x="1040" y="240" width="40" height="120" as="geometry" />
        </mxCell>
        <mxCell id="_Q96MDX6_ETK-nk5UA62-25" value="" style="rounded=0;whiteSpace=wrap;html=1;direction=south;" parent="1" vertex="1">
          <mxGeometry x="1080" y="240" width="40" height="120" as="geometry" />
        </mxCell>
        <mxCell id="_Q96MDX6_ETK-nk5UA62-26" value="" style="rounded=0;whiteSpace=wrap;html=1;direction=south;" parent="1" vertex="1">
          <mxGeometry x="1120" y="240" width="40" height="120" as="geometry" />
        </mxCell>
        <mxCell id="_Q96MDX6_ETK-nk5UA62-27" value="" style="rounded=0;whiteSpace=wrap;html=1;direction=south;" parent="1" vertex="1">
          <mxGeometry x="1160" y="240" width="40" height="120" as="geometry" />
        </mxCell>
        <mxCell id="_Q96MDX6_ETK-nk5UA62-28" value="" style="rounded=0;whiteSpace=wrap;html=1;direction=south;" parent="1" vertex="1">
          <mxGeometry x="1200" y="240" width="40" height="120" as="geometry" />
        </mxCell>
        <mxCell id="_Q96MDX6_ETK-nk5UA62-29" value="" style="rounded=0;whiteSpace=wrap;html=1;direction=south;" parent="1" vertex="1">
          <mxGeometry x="120" y="840" width="40" height="120" as="geometry" />
        </mxCell>
        <mxCell id="_Q96MDX6_ETK-nk5UA62-30" value="" style="rounded=0;whiteSpace=wrap;html=1;direction=south;" parent="1" vertex="1">
          <mxGeometry x="160" y="840" width="40" height="120" as="geometry" />
        </mxCell>
        <mxCell id="_Q96MDX6_ETK-nk5UA62-31" value="" style="rounded=0;whiteSpace=wrap;html=1;direction=south;" parent="1" vertex="1">
          <mxGeometry x="200" y="840" width="40" height="120" as="geometry" />
        </mxCell>
        <mxCell id="_Q96MDX6_ETK-nk5UA62-32" value="" style="rounded=0;whiteSpace=wrap;html=1;direction=south;" parent="1" vertex="1">
          <mxGeometry x="240" y="840" width="40" height="120" as="geometry" />
        </mxCell>
        <mxCell id="_Q96MDX6_ETK-nk5UA62-33" value="" style="rounded=0;whiteSpace=wrap;html=1;direction=south;" parent="1" vertex="1">
          <mxGeometry x="280" y="840" width="40" height="120" as="geometry" />
        </mxCell>
        <mxCell id="_Q96MDX6_ETK-nk5UA62-34" value="" style="rounded=0;whiteSpace=wrap;html=1;direction=south;" parent="1" vertex="1">
          <mxGeometry x="320" y="840" width="40" height="120" as="geometry" />
        </mxCell>
        <mxCell id="_Q96MDX6_ETK-nk5UA62-35" value="" style="rounded=0;whiteSpace=wrap;html=1;direction=south;" parent="1" vertex="1">
          <mxGeometry x="360" y="840" width="40" height="120" as="geometry" />
        </mxCell>
        <mxCell id="_Q96MDX6_ETK-nk5UA62-36" value="" style="rounded=0;whiteSpace=wrap;html=1;direction=south;" parent="1" vertex="1">
          <mxGeometry x="400" y="840" width="40" height="120" as="geometry" />
        </mxCell>
        <mxCell id="_Q96MDX6_ETK-nk5UA62-37" value="" style="rounded=0;whiteSpace=wrap;html=1;direction=south;" parent="1" vertex="1">
          <mxGeometry x="440" y="840" width="40" height="120" as="geometry" />
        </mxCell>
        <mxCell id="_Q96MDX6_ETK-nk5UA62-38" value="" style="rounded=0;whiteSpace=wrap;html=1;direction=south;" parent="1" vertex="1">
          <mxGeometry x="480" y="840" width="40" height="120" as="geometry" />
        </mxCell>
        <mxCell id="_Q96MDX6_ETK-nk5UA62-39" value="" style="rounded=0;whiteSpace=wrap;html=1;direction=south;" parent="1" vertex="1">
          <mxGeometry x="520" y="840" width="40" height="120" as="geometry" />
        </mxCell>
        <mxCell id="_Q96MDX6_ETK-nk5UA62-40" value="" style="rounded=0;whiteSpace=wrap;html=1;direction=south;" parent="1" vertex="1">
          <mxGeometry x="560" y="840" width="40" height="120" as="geometry" />
        </mxCell>
        <mxCell id="_Q96MDX6_ETK-nk5UA62-41" value="" style="rounded=0;whiteSpace=wrap;html=1;direction=south;" parent="1" vertex="1">
          <mxGeometry x="600" y="840" width="40" height="120" as="geometry" />
        </mxCell>
        <mxCell id="_Q96MDX6_ETK-nk5UA62-42" value="" style="rounded=0;whiteSpace=wrap;html=1;direction=south;" parent="1" vertex="1">
          <mxGeometry x="640" y="840" width="40" height="120" as="geometry" />
        </mxCell>
        <mxCell id="_Q96MDX6_ETK-nk5UA62-43" value="" style="rounded=0;whiteSpace=wrap;html=1;direction=south;" parent="1" vertex="1">
          <mxGeometry x="680" y="840" width="40" height="120" as="geometry" />
        </mxCell>
        <mxCell id="_Q96MDX6_ETK-nk5UA62-44" value="" style="rounded=0;whiteSpace=wrap;html=1;direction=south;" parent="1" vertex="1">
          <mxGeometry x="720" y="840" width="40" height="120" as="geometry" />
        </mxCell>
        <mxCell id="_Q96MDX6_ETK-nk5UA62-45" value="" style="rounded=0;whiteSpace=wrap;html=1;direction=south;" parent="1" vertex="1">
          <mxGeometry x="760" y="840" width="40" height="120" as="geometry" />
        </mxCell>
        <mxCell id="_Q96MDX6_ETK-nk5UA62-46" value="" style="rounded=0;whiteSpace=wrap;html=1;direction=south;" parent="1" vertex="1">
          <mxGeometry x="800" y="840" width="40" height="120" as="geometry" />
        </mxCell>
        <mxCell id="_Q96MDX6_ETK-nk5UA62-47" value="" style="rounded=0;whiteSpace=wrap;html=1;direction=south;" parent="1" vertex="1">
          <mxGeometry x="840" y="840" width="40" height="120" as="geometry" />
        </mxCell>
        <mxCell id="_Q96MDX6_ETK-nk5UA62-48" value="" style="rounded=0;whiteSpace=wrap;html=1;direction=south;" parent="1" vertex="1">
          <mxGeometry x="880" y="840" width="40" height="120" as="geometry" />
        </mxCell>
        <mxCell id="_Q96MDX6_ETK-nk5UA62-49" value="" style="rounded=0;whiteSpace=wrap;html=1;direction=south;" parent="1" vertex="1">
          <mxGeometry x="920" y="840" width="40" height="120" as="geometry" />
        </mxCell>
        <mxCell id="_Q96MDX6_ETK-nk5UA62-50" value="" style="rounded=0;whiteSpace=wrap;html=1;direction=south;" parent="1" vertex="1">
          <mxGeometry x="960" y="840" width="40" height="120" as="geometry" />
        </mxCell>
        <mxCell id="_Q96MDX6_ETK-nk5UA62-51" value="" style="rounded=0;whiteSpace=wrap;html=1;direction=south;" parent="1" vertex="1">
          <mxGeometry x="1000" y="840" width="40" height="120" as="geometry" />
        </mxCell>
        <mxCell id="_Q96MDX6_ETK-nk5UA62-52" value="" style="rounded=0;whiteSpace=wrap;html=1;direction=south;" parent="1" vertex="1">
          <mxGeometry x="1040" y="840" width="40" height="120" as="geometry" />
        </mxCell>
        <mxCell id="_Q96MDX6_ETK-nk5UA62-53" value="" style="rounded=0;whiteSpace=wrap;html=1;direction=south;" parent="1" vertex="1">
          <mxGeometry x="1080" y="840" width="40" height="120" as="geometry" />
        </mxCell>
        <mxCell id="_Q96MDX6_ETK-nk5UA62-54" value="" style="rounded=0;whiteSpace=wrap;html=1;direction=south;" parent="1" vertex="1">
          <mxGeometry x="1120" y="840" width="40" height="120" as="geometry" />
        </mxCell>
        <mxCell id="_Q96MDX6_ETK-nk5UA62-55" value="" style="rounded=0;whiteSpace=wrap;html=1;direction=south;" parent="1" vertex="1">
          <mxGeometry x="1160" y="840" width="40" height="120" as="geometry" />
        </mxCell>
        <mxCell id="_Q96MDX6_ETK-nk5UA62-56" value="" style="rounded=0;whiteSpace=wrap;html=1;direction=south;" parent="1" vertex="1">
          <mxGeometry x="1200" y="840" width="40" height="120" as="geometry" />
        </mxCell>
        <mxCell id="_Q96MDX6_ETK-nk5UA62-57" value="FCFS" style="text;html=1;align=center;verticalAlign=middle;resizable=0;points=[];autosize=1;strokeColor=none;fillColor=none;fontStyle=1" parent="1" vertex="1">
          <mxGeometry x="115" y="210" width="50" height="30" as="geometry" />
        </mxCell>
        <mxCell id="_Q96MDX6_ETK-nk5UA62-59" value="Α" style="rounded=0;whiteSpace=wrap;html=1;fillColor=#1ba1e2;strokeColor=#006EAF;fontColor=#ffffff;" parent="1" vertex="1">
          <mxGeometry x="140" y="40" width="120" height="60" as="geometry" />
        </mxCell>
        <mxCell id="_Q96MDX6_ETK-nk5UA62-60" value="Β" style="rounded=0;whiteSpace=wrap;html=1;fillColor=#e51400;fontColor=#ffffff;strokeColor=#B20000;" parent="1" vertex="1">
          <mxGeometry x="270" y="40" width="120" height="60" as="geometry" />
        </mxCell>
        <mxCell id="_Q96MDX6_ETK-nk5UA62-61" value="Γ" style="rounded=0;whiteSpace=wrap;html=1;fillColor=#e3c800;fontColor=#000000;strokeColor=#B09500;" parent="1" vertex="1">
          <mxGeometry x="400" y="40" width="120" height="60" as="geometry" />
        </mxCell>
        <mxCell id="_Q96MDX6_ETK-nk5UA62-62" value="Δ" style="rounded=0;whiteSpace=wrap;html=1;fillColor=#60a917;fontColor=#ffffff;strokeColor=#2D7600;" parent="1" vertex="1">
          <mxGeometry x="540" y="40" width="120" height="60" as="geometry" />
        </mxCell>
        <mxCell id="_Q96MDX6_ETK-nk5UA62-63" value="Ε" style="rounded=0;whiteSpace=wrap;html=1;fillColor=#6a00ff;fontColor=#ffffff;strokeColor=#3700CC;" parent="1" vertex="1">
          <mxGeometry x="680" y="40" width="120" height="60" as="geometry" />
        </mxCell>
        <mxCell id="_Q96MDX6_ETK-nk5UA62-64" value="Α" style="rounded=0;whiteSpace=wrap;html=1;fillColor=#1ba1e2;strokeColor=#006EAF;fontColor=#ffffff;" parent="1" vertex="1">
          <mxGeometry x="120" y="270" width="320" height="60" as="geometry" />
        </mxCell>
        <mxCell id="_Q96MDX6_ETK-nk5UA62-65" value="Β" style="rounded=0;whiteSpace=wrap;html=1;fillColor=#e51400;fontColor=#ffffff;strokeColor=#B20000;" parent="1" vertex="1">
          <mxGeometry x="440" y="270" width="160" height="60" as="geometry" />
        </mxCell>
        <mxCell id="_Q96MDX6_ETK-nk5UA62-67" value="Γ" style="rounded=0;whiteSpace=wrap;html=1;fillColor=#e3c800;fontColor=#000000;strokeColor=#B09500;" parent="1" vertex="1">
          <mxGeometry x="600" y="270" width="160" height="60" as="geometry" />
        </mxCell>
        <mxCell id="_Q96MDX6_ETK-nk5UA62-68" value="Δ" style="rounded=0;whiteSpace=wrap;html=1;fillColor=#60a917;fontColor=#ffffff;strokeColor=#2D7600;" parent="1" vertex="1">
          <mxGeometry x="760" y="270" width="200" height="60" as="geometry" />
        </mxCell>
        <mxCell id="_Q96MDX6_ETK-nk5UA62-69" value="Ε" style="rounded=0;whiteSpace=wrap;html=1;fillColor=#6a00ff;fontColor=#ffffff;strokeColor=#3700CC;" parent="1" vertex="1">
          <mxGeometry x="960" y="270" width="280" height="60" as="geometry" />
        </mxCell>
        <mxCell id="_Q96MDX6_ETK-nk5UA62-70" value="0&lt;br&gt;" style="text;html=1;align=center;verticalAlign=middle;resizable=0;points=[];autosize=1;strokeColor=none;fillColor=none;" parent="1" vertex="1">
          <mxGeometry x="105" y="360" width="30" height="30" as="geometry" />
        </mxCell>
        <mxCell id="_Q96MDX6_ETK-nk5UA62-71" value="8" style="text;html=1;align=center;verticalAlign=middle;resizable=0;points=[];autosize=1;strokeColor=none;fillColor=none;" parent="1" vertex="1">
          <mxGeometry x="425" y="360" width="30" height="30" as="geometry" />
        </mxCell>
        <mxCell id="_Q96MDX6_ETK-nk5UA62-72" value="12" style="text;html=1;align=center;verticalAlign=middle;resizable=0;points=[];autosize=1;strokeColor=none;fillColor=none;" parent="1" vertex="1">
          <mxGeometry x="580" y="360" width="40" height="30" as="geometry" />
        </mxCell>
        <mxCell id="_Q96MDX6_ETK-nk5UA62-73" value="16" style="text;html=1;align=center;verticalAlign=middle;resizable=0;points=[];autosize=1;strokeColor=none;fillColor=none;" parent="1" vertex="1">
          <mxGeometry x="740" y="360" width="40" height="30" as="geometry" />
        </mxCell>
        <mxCell id="_Q96MDX6_ETK-nk5UA62-74" value="21" style="text;html=1;align=center;verticalAlign=middle;resizable=0;points=[];autosize=1;strokeColor=none;fillColor=none;" parent="1" vertex="1">
          <mxGeometry x="940" y="360" width="40" height="30" as="geometry" />
        </mxCell>
        <mxCell id="_Q96MDX6_ETK-nk5UA62-75" value="28" style="text;html=1;align=center;verticalAlign=middle;resizable=0;points=[];autosize=1;strokeColor=none;fillColor=none;" parent="1" vertex="1">
          <mxGeometry x="1220" y="360" width="40" height="30" as="geometry" />
        </mxCell>
        <mxCell id="_Q96MDX6_ETK-nk5UA62-76" value="" style="rounded=0;whiteSpace=wrap;html=1;direction=south;" parent="1" vertex="1">
          <mxGeometry x="120" y="1360" width="40" height="120" as="geometry" />
        </mxCell>
        <mxCell id="_Q96MDX6_ETK-nk5UA62-77" value="" style="rounded=0;whiteSpace=wrap;html=1;direction=south;" parent="1" vertex="1">
          <mxGeometry x="160" y="1360" width="40" height="120" as="geometry" />
        </mxCell>
        <mxCell id="_Q96MDX6_ETK-nk5UA62-78" value="" style="rounded=0;whiteSpace=wrap;html=1;direction=south;" parent="1" vertex="1">
          <mxGeometry x="200" y="1360" width="40" height="120" as="geometry" />
        </mxCell>
        <mxCell id="_Q96MDX6_ETK-nk5UA62-79" value="" style="rounded=0;whiteSpace=wrap;html=1;direction=south;" parent="1" vertex="1">
          <mxGeometry x="240" y="1360" width="40" height="120" as="geometry" />
        </mxCell>
        <mxCell id="_Q96MDX6_ETK-nk5UA62-80" value="" style="rounded=0;whiteSpace=wrap;html=1;direction=south;" parent="1" vertex="1">
          <mxGeometry x="280" y="1360" width="40" height="120" as="geometry" />
        </mxCell>
        <mxCell id="_Q96MDX6_ETK-nk5UA62-81" value="" style="rounded=0;whiteSpace=wrap;html=1;direction=south;" parent="1" vertex="1">
          <mxGeometry x="320" y="1360" width="40" height="120" as="geometry" />
        </mxCell>
        <mxCell id="_Q96MDX6_ETK-nk5UA62-82" value="" style="rounded=0;whiteSpace=wrap;html=1;direction=south;" parent="1" vertex="1">
          <mxGeometry x="360" y="1360" width="40" height="120" as="geometry" />
        </mxCell>
        <mxCell id="_Q96MDX6_ETK-nk5UA62-83" value="" style="rounded=0;whiteSpace=wrap;html=1;direction=south;" parent="1" vertex="1">
          <mxGeometry x="400" y="1360" width="40" height="120" as="geometry" />
        </mxCell>
        <mxCell id="_Q96MDX6_ETK-nk5UA62-84" value="" style="rounded=0;whiteSpace=wrap;html=1;direction=south;" parent="1" vertex="1">
          <mxGeometry x="440" y="1360" width="40" height="120" as="geometry" />
        </mxCell>
        <mxCell id="_Q96MDX6_ETK-nk5UA62-85" value="" style="rounded=0;whiteSpace=wrap;html=1;direction=south;" parent="1" vertex="1">
          <mxGeometry x="480" y="1360" width="40" height="120" as="geometry" />
        </mxCell>
        <mxCell id="_Q96MDX6_ETK-nk5UA62-86" value="" style="rounded=0;whiteSpace=wrap;html=1;direction=south;" parent="1" vertex="1">
          <mxGeometry x="520" y="1360" width="40" height="120" as="geometry" />
        </mxCell>
        <mxCell id="_Q96MDX6_ETK-nk5UA62-87" value="" style="rounded=0;whiteSpace=wrap;html=1;direction=south;" parent="1" vertex="1">
          <mxGeometry x="560" y="1360" width="40" height="120" as="geometry" />
        </mxCell>
        <mxCell id="_Q96MDX6_ETK-nk5UA62-88" value="" style="rounded=0;whiteSpace=wrap;html=1;direction=south;" parent="1" vertex="1">
          <mxGeometry x="600" y="1360" width="40" height="120" as="geometry" />
        </mxCell>
        <mxCell id="_Q96MDX6_ETK-nk5UA62-89" value="" style="rounded=0;whiteSpace=wrap;html=1;direction=south;" parent="1" vertex="1">
          <mxGeometry x="640" y="1360" width="40" height="120" as="geometry" />
        </mxCell>
        <mxCell id="_Q96MDX6_ETK-nk5UA62-90" value="" style="rounded=0;whiteSpace=wrap;html=1;direction=south;" parent="1" vertex="1">
          <mxGeometry x="680" y="1360" width="40" height="120" as="geometry" />
        </mxCell>
        <mxCell id="_Q96MDX6_ETK-nk5UA62-91" value="" style="rounded=0;whiteSpace=wrap;html=1;direction=south;" parent="1" vertex="1">
          <mxGeometry x="720" y="1360" width="40" height="120" as="geometry" />
        </mxCell>
        <mxCell id="_Q96MDX6_ETK-nk5UA62-92" value="" style="rounded=0;whiteSpace=wrap;html=1;direction=south;" parent="1" vertex="1">
          <mxGeometry x="760" y="1360" width="40" height="120" as="geometry" />
        </mxCell>
        <mxCell id="_Q96MDX6_ETK-nk5UA62-93" value="" style="rounded=0;whiteSpace=wrap;html=1;direction=south;" parent="1" vertex="1">
          <mxGeometry x="800" y="1360" width="40" height="120" as="geometry" />
        </mxCell>
        <mxCell id="_Q96MDX6_ETK-nk5UA62-94" value="" style="rounded=0;whiteSpace=wrap;html=1;direction=south;" parent="1" vertex="1">
          <mxGeometry x="840" y="1360" width="40" height="120" as="geometry" />
        </mxCell>
        <mxCell id="_Q96MDX6_ETK-nk5UA62-95" value="" style="rounded=0;whiteSpace=wrap;html=1;direction=south;" parent="1" vertex="1">
          <mxGeometry x="880" y="1360" width="40" height="120" as="geometry" />
        </mxCell>
        <mxCell id="_Q96MDX6_ETK-nk5UA62-96" value="" style="rounded=0;whiteSpace=wrap;html=1;direction=south;" parent="1" vertex="1">
          <mxGeometry x="920" y="1360" width="40" height="120" as="geometry" />
        </mxCell>
        <mxCell id="_Q96MDX6_ETK-nk5UA62-97" value="" style="rounded=0;whiteSpace=wrap;html=1;direction=south;" parent="1" vertex="1">
          <mxGeometry x="960" y="1360" width="40" height="120" as="geometry" />
        </mxCell>
        <mxCell id="_Q96MDX6_ETK-nk5UA62-98" value="" style="rounded=0;whiteSpace=wrap;html=1;direction=south;" parent="1" vertex="1">
          <mxGeometry x="1000" y="1360" width="40" height="120" as="geometry" />
        </mxCell>
        <mxCell id="_Q96MDX6_ETK-nk5UA62-99" value="" style="rounded=0;whiteSpace=wrap;html=1;direction=south;" parent="1" vertex="1">
          <mxGeometry x="1040" y="1360" width="40" height="120" as="geometry" />
        </mxCell>
        <mxCell id="_Q96MDX6_ETK-nk5UA62-100" value="" style="rounded=0;whiteSpace=wrap;html=1;direction=south;" parent="1" vertex="1">
          <mxGeometry x="1080" y="1360" width="40" height="120" as="geometry" />
        </mxCell>
        <mxCell id="_Q96MDX6_ETK-nk5UA62-101" value="" style="rounded=0;whiteSpace=wrap;html=1;direction=south;" parent="1" vertex="1">
          <mxGeometry x="1120" y="1360" width="40" height="120" as="geometry" />
        </mxCell>
        <mxCell id="_Q96MDX6_ETK-nk5UA62-102" value="" style="rounded=0;whiteSpace=wrap;html=1;direction=south;" parent="1" vertex="1">
          <mxGeometry x="1160" y="1360" width="40" height="120" as="geometry" />
        </mxCell>
        <mxCell id="_Q96MDX6_ETK-nk5UA62-103" value="" style="rounded=0;whiteSpace=wrap;html=1;direction=south;" parent="1" vertex="1">
          <mxGeometry x="1200" y="1360" width="40" height="120" as="geometry" />
        </mxCell>
        <mxCell id="_Q96MDX6_ETK-nk5UA62-104" value="&lt;b&gt;SJF&lt;/b&gt;" style="text;html=1;align=center;verticalAlign=middle;resizable=0;points=[];autosize=1;strokeColor=none;fillColor=none;" parent="1" vertex="1">
          <mxGeometry x="120" y="810" width="50" height="30" as="geometry" />
        </mxCell>
        <mxCell id="_Q96MDX6_ETK-nk5UA62-105" value="Α" style="rounded=0;whiteSpace=wrap;html=1;fillColor=#1ba1e2;strokeColor=#006EAF;fontColor=#ffffff;" parent="1" vertex="1">
          <mxGeometry x="120" y="870" width="320" height="60" as="geometry" />
        </mxCell>
        <mxCell id="_Q96MDX6_ETK-nk5UA62-106" value="Β" style="rounded=0;whiteSpace=wrap;html=1;fillColor=#e51400;fontColor=#ffffff;strokeColor=#B20000;" parent="1" vertex="1">
          <mxGeometry x="600" y="870" width="160" height="60" as="geometry" />
        </mxCell>
        <mxCell id="_Q96MDX6_ETK-nk5UA62-107" value="Γ" style="rounded=0;whiteSpace=wrap;html=1;fillColor=#e3c800;fontColor=#000000;strokeColor=#B09500;" parent="1" vertex="1">
          <mxGeometry x="440" y="870" width="160" height="60" as="geometry" />
        </mxCell>
        <mxCell id="_Q96MDX6_ETK-nk5UA62-108" value="Δ" style="rounded=0;whiteSpace=wrap;html=1;fillColor=#60a917;fontColor=#ffffff;strokeColor=#2D7600;" parent="1" vertex="1">
          <mxGeometry x="760" y="870" width="200" height="60" as="geometry" />
        </mxCell>
        <mxCell id="_Q96MDX6_ETK-nk5UA62-109" value="Ε" style="rounded=0;whiteSpace=wrap;html=1;fillColor=#6a00ff;fontColor=#ffffff;strokeColor=#3700CC;" parent="1" vertex="1">
          <mxGeometry x="960" y="870" width="280" height="60" as="geometry" />
        </mxCell>
        <mxCell id="_Q96MDX6_ETK-nk5UA62-111" value="0&lt;br&gt;" style="text;html=1;align=center;verticalAlign=middle;resizable=0;points=[];autosize=1;strokeColor=none;fillColor=none;" parent="1" vertex="1">
          <mxGeometry x="105" y="960" width="30" height="30" as="geometry" />
        </mxCell>
        <mxCell id="_Q96MDX6_ETK-nk5UA62-112" value="8" style="text;html=1;align=center;verticalAlign=middle;resizable=0;points=[];autosize=1;strokeColor=none;fillColor=none;" parent="1" vertex="1">
          <mxGeometry x="425" y="960" width="30" height="30" as="geometry" />
        </mxCell>
        <mxCell id="_Q96MDX6_ETK-nk5UA62-113" value="12" style="text;html=1;align=center;verticalAlign=middle;resizable=0;points=[];autosize=1;strokeColor=none;fillColor=none;" parent="1" vertex="1">
          <mxGeometry x="580" y="960" width="40" height="30" as="geometry" />
        </mxCell>
        <mxCell id="_Q96MDX6_ETK-nk5UA62-114" value="16" style="text;html=1;align=center;verticalAlign=middle;resizable=0;points=[];autosize=1;strokeColor=none;fillColor=none;" parent="1" vertex="1">
          <mxGeometry x="740" y="960" width="40" height="30" as="geometry" />
        </mxCell>
        <mxCell id="_Q96MDX6_ETK-nk5UA62-115" value="21" style="text;html=1;align=center;verticalAlign=middle;resizable=0;points=[];autosize=1;strokeColor=none;fillColor=none;" parent="1" vertex="1">
          <mxGeometry x="940" y="960" width="40" height="30" as="geometry" />
        </mxCell>
        <mxCell id="_Q96MDX6_ETK-nk5UA62-116" value="28" style="text;html=1;align=center;verticalAlign=middle;resizable=0;points=[];autosize=1;strokeColor=none;fillColor=none;" parent="1" vertex="1">
          <mxGeometry x="1220" y="960" width="40" height="30" as="geometry" />
        </mxCell>
        <mxCell id="_Q96MDX6_ETK-nk5UA62-117" value="" style="rounded=0;whiteSpace=wrap;html=1;direction=south;" parent="1" vertex="1">
          <mxGeometry x="115" y="1630" width="40" height="120" as="geometry" />
        </mxCell>
        <mxCell id="_Q96MDX6_ETK-nk5UA62-118" value="" style="rounded=0;whiteSpace=wrap;html=1;direction=south;" parent="1" vertex="1">
          <mxGeometry x="155" y="1630" width="40" height="120" as="geometry" />
        </mxCell>
        <mxCell id="_Q96MDX6_ETK-nk5UA62-119" value="" style="rounded=0;whiteSpace=wrap;html=1;direction=south;" parent="1" vertex="1">
          <mxGeometry x="195" y="1630" width="40" height="120" as="geometry" />
        </mxCell>
        <mxCell id="_Q96MDX6_ETK-nk5UA62-120" value="" style="rounded=0;whiteSpace=wrap;html=1;direction=south;" parent="1" vertex="1">
          <mxGeometry x="235" y="1630" width="40" height="120" as="geometry" />
        </mxCell>
        <mxCell id="_Q96MDX6_ETK-nk5UA62-121" value="" style="rounded=0;whiteSpace=wrap;html=1;direction=south;" parent="1" vertex="1">
          <mxGeometry x="275" y="1630" width="40" height="120" as="geometry" />
        </mxCell>
        <mxCell id="_Q96MDX6_ETK-nk5UA62-122" value="" style="rounded=0;whiteSpace=wrap;html=1;direction=south;" parent="1" vertex="1">
          <mxGeometry x="315" y="1630" width="40" height="120" as="geometry" />
        </mxCell>
        <mxCell id="_Q96MDX6_ETK-nk5UA62-123" value="" style="rounded=0;whiteSpace=wrap;html=1;direction=south;" parent="1" vertex="1">
          <mxGeometry x="355" y="1630" width="40" height="120" as="geometry" />
        </mxCell>
        <mxCell id="_Q96MDX6_ETK-nk5UA62-124" value="" style="rounded=0;whiteSpace=wrap;html=1;direction=south;" parent="1" vertex="1">
          <mxGeometry x="395" y="1630" width="40" height="120" as="geometry" />
        </mxCell>
        <mxCell id="_Q96MDX6_ETK-nk5UA62-125" value="" style="rounded=0;whiteSpace=wrap;html=1;direction=south;" parent="1" vertex="1">
          <mxGeometry x="435" y="1630" width="40" height="120" as="geometry" />
        </mxCell>
        <mxCell id="_Q96MDX6_ETK-nk5UA62-126" value="" style="rounded=0;whiteSpace=wrap;html=1;direction=south;" parent="1" vertex="1">
          <mxGeometry x="475" y="1630" width="40" height="120" as="geometry" />
        </mxCell>
        <mxCell id="_Q96MDX6_ETK-nk5UA62-127" value="" style="rounded=0;whiteSpace=wrap;html=1;direction=south;" parent="1" vertex="1">
          <mxGeometry x="515" y="1630" width="40" height="120" as="geometry" />
        </mxCell>
        <mxCell id="_Q96MDX6_ETK-nk5UA62-128" value="" style="rounded=0;whiteSpace=wrap;html=1;direction=south;" parent="1" vertex="1">
          <mxGeometry x="555" y="1630" width="40" height="120" as="geometry" />
        </mxCell>
        <mxCell id="_Q96MDX6_ETK-nk5UA62-129" value="" style="rounded=0;whiteSpace=wrap;html=1;direction=south;" parent="1" vertex="1">
          <mxGeometry x="595" y="1630" width="40" height="120" as="geometry" />
        </mxCell>
        <mxCell id="_Q96MDX6_ETK-nk5UA62-130" value="" style="rounded=0;whiteSpace=wrap;html=1;direction=south;" parent="1" vertex="1">
          <mxGeometry x="635" y="1630" width="40" height="120" as="geometry" />
        </mxCell>
        <mxCell id="_Q96MDX6_ETK-nk5UA62-131" value="" style="rounded=0;whiteSpace=wrap;html=1;direction=south;" parent="1" vertex="1">
          <mxGeometry x="675" y="1630" width="40" height="120" as="geometry" />
        </mxCell>
        <mxCell id="_Q96MDX6_ETK-nk5UA62-132" value="" style="rounded=0;whiteSpace=wrap;html=1;direction=south;" parent="1" vertex="1">
          <mxGeometry x="715" y="1630" width="40" height="120" as="geometry" />
        </mxCell>
        <mxCell id="_Q96MDX6_ETK-nk5UA62-133" value="" style="rounded=0;whiteSpace=wrap;html=1;direction=south;" parent="1" vertex="1">
          <mxGeometry x="755" y="1630" width="40" height="120" as="geometry" />
        </mxCell>
        <mxCell id="_Q96MDX6_ETK-nk5UA62-134" value="" style="rounded=0;whiteSpace=wrap;html=1;direction=south;" parent="1" vertex="1">
          <mxGeometry x="795" y="1630" width="40" height="120" as="geometry" />
        </mxCell>
        <mxCell id="_Q96MDX6_ETK-nk5UA62-135" value="" style="rounded=0;whiteSpace=wrap;html=1;direction=south;" parent="1" vertex="1">
          <mxGeometry x="835" y="1630" width="40" height="120" as="geometry" />
        </mxCell>
        <mxCell id="_Q96MDX6_ETK-nk5UA62-136" value="" style="rounded=0;whiteSpace=wrap;html=1;direction=south;" parent="1" vertex="1">
          <mxGeometry x="875" y="1630" width="40" height="120" as="geometry" />
        </mxCell>
        <mxCell id="_Q96MDX6_ETK-nk5UA62-137" value="" style="rounded=0;whiteSpace=wrap;html=1;direction=south;" parent="1" vertex="1">
          <mxGeometry x="915" y="1630" width="40" height="120" as="geometry" />
        </mxCell>
        <mxCell id="_Q96MDX6_ETK-nk5UA62-138" value="" style="rounded=0;whiteSpace=wrap;html=1;direction=south;" parent="1" vertex="1">
          <mxGeometry x="955" y="1630" width="40" height="120" as="geometry" />
        </mxCell>
        <mxCell id="_Q96MDX6_ETK-nk5UA62-139" value="" style="rounded=0;whiteSpace=wrap;html=1;direction=south;" parent="1" vertex="1">
          <mxGeometry x="995" y="1630" width="40" height="120" as="geometry" />
        </mxCell>
        <mxCell id="_Q96MDX6_ETK-nk5UA62-140" value="" style="rounded=0;whiteSpace=wrap;html=1;direction=south;" parent="1" vertex="1">
          <mxGeometry x="1035" y="1630" width="40" height="120" as="geometry" />
        </mxCell>
        <mxCell id="_Q96MDX6_ETK-nk5UA62-141" value="" style="rounded=0;whiteSpace=wrap;html=1;direction=south;" parent="1" vertex="1">
          <mxGeometry x="1075" y="1630" width="40" height="120" as="geometry" />
        </mxCell>
        <mxCell id="_Q96MDX6_ETK-nk5UA62-142" value="" style="rounded=0;whiteSpace=wrap;html=1;direction=south;" parent="1" vertex="1">
          <mxGeometry x="1115" y="1630" width="40" height="120" as="geometry" />
        </mxCell>
        <mxCell id="_Q96MDX6_ETK-nk5UA62-143" value="" style="rounded=0;whiteSpace=wrap;html=1;direction=south;" parent="1" vertex="1">
          <mxGeometry x="1155" y="1630" width="40" height="120" as="geometry" />
        </mxCell>
        <mxCell id="_Q96MDX6_ETK-nk5UA62-144" value="" style="rounded=0;whiteSpace=wrap;html=1;direction=south;" parent="1" vertex="1">
          <mxGeometry x="1195" y="1630" width="40" height="120" as="geometry" />
        </mxCell>
        <mxCell id="_Q96MDX6_ETK-nk5UA62-145" value="Α" style="rounded=0;whiteSpace=wrap;html=1;fillColor=#1ba1e2;strokeColor=#006EAF;fontColor=#ffffff;" parent="1" vertex="1">
          <mxGeometry x="120" y="1390" width="120" height="60" as="geometry" />
        </mxCell>
        <mxCell id="_Q96MDX6_ETK-nk5UA62-146" value="Β" style="rounded=0;whiteSpace=wrap;html=1;fillColor=#e51400;fontColor=#ffffff;strokeColor=#B20000;" parent="1" vertex="1">
          <mxGeometry x="240" y="1390" width="160" height="60" as="geometry" />
        </mxCell>
        <mxCell id="_Q96MDX6_ETK-nk5UA62-147" value="Γ" style="rounded=0;whiteSpace=wrap;html=1;fillColor=#e3c800;fontColor=#000000;strokeColor=#B09500;" parent="1" vertex="1">
          <mxGeometry x="400" y="1390" width="160" height="60" as="geometry" />
        </mxCell>
        <mxCell id="_Q96MDX6_ETK-nk5UA62-148" value="Δ" style="rounded=0;whiteSpace=wrap;html=1;fillColor=#60a917;fontColor=#ffffff;strokeColor=#2D7600;" parent="1" vertex="1">
          <mxGeometry x="760" y="1390" width="200" height="60" as="geometry" />
        </mxCell>
        <mxCell id="_Q96MDX6_ETK-nk5UA62-149" value="Ε" style="rounded=0;whiteSpace=wrap;html=1;fillColor=#6a00ff;fontColor=#ffffff;strokeColor=#3700CC;" parent="1" vertex="1">
          <mxGeometry x="960" y="1390" width="280" height="60" as="geometry" />
        </mxCell>
        <mxCell id="_Q96MDX6_ETK-nk5UA62-151" value="Α" style="rounded=0;whiteSpace=wrap;html=1;fillColor=#1ba1e2;strokeColor=#006EAF;fontColor=#ffffff;" parent="1" vertex="1">
          <mxGeometry x="560" y="1390" width="200" height="60" as="geometry" />
        </mxCell>
        <mxCell id="_Q96MDX6_ETK-nk5UA62-152" value="0&lt;br&gt;" style="text;html=1;align=center;verticalAlign=middle;resizable=0;points=[];autosize=1;strokeColor=none;fillColor=none;" parent="1" vertex="1">
          <mxGeometry x="105" y="1480" width="30" height="30" as="geometry" />
        </mxCell>
        <mxCell id="_Q96MDX6_ETK-nk5UA62-153" value="3" style="text;html=1;align=center;verticalAlign=middle;resizable=0;points=[];autosize=1;strokeColor=none;fillColor=none;" parent="1" vertex="1">
          <mxGeometry x="225" y="1480" width="30" height="30" as="geometry" />
        </mxCell>
        <mxCell id="_Q96MDX6_ETK-nk5UA62-154" value="7" style="text;html=1;align=center;verticalAlign=middle;resizable=0;points=[];autosize=1;strokeColor=none;fillColor=none;" parent="1" vertex="1">
          <mxGeometry x="385" y="1480" width="30" height="30" as="geometry" />
        </mxCell>
        <mxCell id="_Q96MDX6_ETK-nk5UA62-155" value="11" style="text;html=1;align=center;verticalAlign=middle;resizable=0;points=[];autosize=1;strokeColor=none;fillColor=none;" parent="1" vertex="1">
          <mxGeometry x="540" y="1480" width="40" height="30" as="geometry" />
        </mxCell>
        <mxCell id="_Q96MDX6_ETK-nk5UA62-156" value="16" style="text;html=1;align=center;verticalAlign=middle;resizable=0;points=[];autosize=1;strokeColor=none;fillColor=none;" parent="1" vertex="1">
          <mxGeometry x="740" y="1480" width="40" height="30" as="geometry" />
        </mxCell>
        <mxCell id="_Q96MDX6_ETK-nk5UA62-157" value="21" style="text;html=1;align=center;verticalAlign=middle;resizable=0;points=[];autosize=1;strokeColor=none;fillColor=none;" parent="1" vertex="1">
          <mxGeometry x="940" y="1480" width="40" height="30" as="geometry" />
        </mxCell>
        <mxCell id="_Q96MDX6_ETK-nk5UA62-158" value="28" style="text;html=1;align=center;verticalAlign=middle;resizable=0;points=[];autosize=1;strokeColor=none;fillColor=none;" parent="1" vertex="1">
          <mxGeometry x="1220" y="1480" width="40" height="30" as="geometry" />
        </mxCell>
        <mxCell id="_Q96MDX6_ETK-nk5UA62-164" value="Α" style="rounded=0;whiteSpace=wrap;html=1;fillColor=#1ba1e2;strokeColor=#006EAF;fontColor=#ffffff;" parent="1" vertex="1">
          <mxGeometry x="115" y="1660" width="80" height="60" as="geometry" />
        </mxCell>
        <mxCell id="_Q96MDX6_ETK-nk5UA62-165" value="Β" style="rounded=0;whiteSpace=wrap;html=1;fillColor=#e51400;fontColor=#ffffff;strokeColor=#B20000;" parent="1" vertex="1">
          <mxGeometry x="595" y="1660" width="80" height="60" as="geometry" />
        </mxCell>
        <mxCell id="_Q96MDX6_ETK-nk5UA62-166" value="Γ" style="rounded=0;whiteSpace=wrap;html=1;fillColor=#e3c800;fontColor=#000000;strokeColor=#B09500;" parent="1" vertex="1">
          <mxGeometry x="835" y="1660" width="80" height="60" as="geometry" />
        </mxCell>
        <mxCell id="_Q96MDX6_ETK-nk5UA62-167" value="Δ" style="rounded=0;whiteSpace=wrap;html=1;fillColor=#60a917;fontColor=#ffffff;strokeColor=#2D7600;" parent="1" vertex="1">
          <mxGeometry x="1075" y="1660" width="40" height="60" as="geometry" />
        </mxCell>
        <mxCell id="_Q96MDX6_ETK-nk5UA62-169" value="Α" style="rounded=0;whiteSpace=wrap;html=1;fillColor=#1ba1e2;strokeColor=#006EAF;fontColor=#ffffff;" parent="1" vertex="1">
          <mxGeometry x="195" y="1660" width="80" height="60" as="geometry" />
        </mxCell>
        <mxCell id="_Q96MDX6_ETK-nk5UA62-170" value="Α" style="rounded=0;whiteSpace=wrap;html=1;fillColor=#1ba1e2;strokeColor=#006EAF;fontColor=#ffffff;" parent="1" vertex="1">
          <mxGeometry x="755" y="1660" width="80" height="60" as="geometry" />
        </mxCell>
        <mxCell id="_Q96MDX6_ETK-nk5UA62-171" value="Β" style="rounded=0;whiteSpace=wrap;html=1;fillColor=#e51400;fontColor=#ffffff;strokeColor=#B20000;" parent="1" vertex="1">
          <mxGeometry x="275" y="1660" width="80" height="60" as="geometry" />
        </mxCell>
        <mxCell id="_Q96MDX6_ETK-nk5UA62-174" value="Γ" style="rounded=0;whiteSpace=wrap;html=1;fillColor=#e3c800;fontColor=#000000;strokeColor=#B09500;" parent="1" vertex="1">
          <mxGeometry x="435" y="1660" width="80" height="60" as="geometry" />
        </mxCell>
        <mxCell id="_Q96MDX6_ETK-nk5UA62-175" value="Α" style="rounded=0;whiteSpace=wrap;html=1;fillColor=#1ba1e2;strokeColor=#006EAF;fontColor=#ffffff;" parent="1" vertex="1">
          <mxGeometry x="355" y="1660" width="80" height="60" as="geometry" />
        </mxCell>
        <mxCell id="_Q96MDX6_ETK-nk5UA62-176" value="0" style="text;html=1;align=center;verticalAlign=middle;resizable=0;points=[];autosize=1;strokeColor=none;fillColor=none;" parent="1" vertex="1">
          <mxGeometry x="105" y="2280" width="30" height="30" as="geometry" />
        </mxCell>
        <mxCell id="_Q96MDX6_ETK-nk5UA62-177" value="2" style="text;html=1;align=center;verticalAlign=middle;resizable=0;points=[];autosize=1;strokeColor=none;fillColor=none;" parent="1" vertex="1">
          <mxGeometry x="185" y="2280" width="30" height="30" as="geometry" />
        </mxCell>
        <mxCell id="_Q96MDX6_ETK-nk5UA62-178" value="4" style="text;html=1;align=center;verticalAlign=middle;resizable=0;points=[];autosize=1;strokeColor=none;fillColor=none;" parent="1" vertex="1">
          <mxGeometry x="265" y="2280" width="30" height="30" as="geometry" />
        </mxCell>
        <mxCell id="_Q96MDX6_ETK-nk5UA62-179" value="5.25" style="text;html=1;align=center;verticalAlign=middle;resizable=0;points=[];autosize=1;strokeColor=none;fillColor=none;" parent="1" vertex="1">
          <mxGeometry x="305" y="2280" width="50" height="30" as="geometry" />
        </mxCell>
        <mxCell id="_Q96MDX6_ETK-nk5UA62-180" value="7.25" style="text;html=1;align=center;verticalAlign=middle;resizable=0;points=[];autosize=1;strokeColor=none;fillColor=none;" parent="1" vertex="1">
          <mxGeometry x="385" y="2280" width="50" height="30" as="geometry" />
        </mxCell>
        <mxCell id="_Q96MDX6_ETK-nk5UA62-181" value="10.5" style="text;html=1;align=center;verticalAlign=middle;resizable=0;points=[];autosize=1;strokeColor=none;fillColor=none;" parent="1" vertex="1">
          <mxGeometry x="515" y="2280" width="50" height="30" as="geometry" />
        </mxCell>
        <mxCell id="_Q96MDX6_ETK-nk5UA62-182" value="11.75" style="text;html=1;align=center;verticalAlign=middle;resizable=0;points=[];autosize=1;strokeColor=none;fillColor=none;" parent="1" vertex="1">
          <mxGeometry x="565" y="2280" width="50" height="30" as="geometry" />
        </mxCell>
        <mxCell id="_Q96MDX6_ETK-nk5UA62-183" value="13.75" style="text;html=1;align=center;verticalAlign=middle;resizable=0;points=[];autosize=1;strokeColor=none;fillColor=none;" parent="1" vertex="1">
          <mxGeometry x="640" y="2280" width="50" height="30" as="geometry" />
        </mxCell>
        <mxCell id="_Q96MDX6_ETK-nk5UA62-184" value="17" style="text;html=1;align=center;verticalAlign=middle;resizable=0;points=[];autosize=1;strokeColor=none;fillColor=none;" parent="1" vertex="1">
          <mxGeometry x="780" y="2280" width="40" height="30" as="geometry" />
        </mxCell>
        <mxCell id="_Q96MDX6_ETK-nk5UA62-185" value="18.25" style="text;html=1;align=center;verticalAlign=middle;resizable=0;points=[];autosize=1;strokeColor=none;fillColor=none;" parent="1" vertex="1">
          <mxGeometry x="825" y="2280" width="50" height="30" as="geometry" />
        </mxCell>
        <mxCell id="_Q96MDX6_ETK-nk5UA62-186" value="20.25" style="text;html=1;align=center;verticalAlign=middle;resizable=0;points=[];autosize=1;strokeColor=none;fillColor=none;" parent="1" vertex="1">
          <mxGeometry x="905" y="2280" width="50" height="30" as="geometry" />
        </mxCell>
        <mxCell id="_Q96MDX6_ETK-nk5UA62-187" value="21.5" style="text;html=1;align=center;verticalAlign=middle;resizable=0;points=[];autosize=1;strokeColor=none;fillColor=none;" parent="1" vertex="1">
          <mxGeometry x="955" y="2280" width="50" height="30" as="geometry" />
        </mxCell>
        <mxCell id="_Q96MDX6_ETK-nk5UA62-188" value="23.5" style="text;html=1;align=center;verticalAlign=middle;resizable=0;points=[];autosize=1;strokeColor=none;fillColor=none;" parent="1" vertex="1">
          <mxGeometry x="1035" y="2280" width="50" height="30" as="geometry" />
        </mxCell>
        <mxCell id="_Q96MDX6_ETK-nk5UA62-189" value="26.75" style="text;html=1;align=center;verticalAlign=middle;resizable=0;points=[];autosize=1;strokeColor=none;fillColor=none;" parent="1" vertex="1">
          <mxGeometry x="1160" y="2280" width="50" height="30" as="geometry" />
        </mxCell>
        <mxCell id="_Q96MDX6_ETK-nk5UA62-190" value="29" style="text;html=1;align=center;verticalAlign=middle;resizable=0;points=[];autosize=1;strokeColor=none;fillColor=none;" parent="1" vertex="1">
          <mxGeometry x="1220" y="2280" width="40" height="30" as="geometry" />
        </mxCell>
        <mxCell id="_Q96MDX6_ETK-nk5UA62-192" value="Ε" style="rounded=0;whiteSpace=wrap;html=1;fillColor=#6a00ff;fontColor=#ffffff;strokeColor=#3700CC;" parent="1" vertex="1">
          <mxGeometry x="995" y="1660" width="80" height="60" as="geometry" />
        </mxCell>
        <mxCell id="_Q96MDX6_ETK-nk5UA62-193" value="Δ" style="rounded=0;whiteSpace=wrap;html=1;fillColor=#60a917;fontColor=#ffffff;strokeColor=#2D7600;" parent="1" vertex="1">
          <mxGeometry x="515" y="1660" width="80" height="60" as="geometry" />
        </mxCell>
        <mxCell id="_Q96MDX6_ETK-nk5UA62-195" value="Ε" style="rounded=0;whiteSpace=wrap;html=1;fillColor=#6a00ff;fontColor=#ffffff;strokeColor=#3700CC;" parent="1" vertex="1">
          <mxGeometry x="675" y="1660" width="80" height="60" as="geometry" />
        </mxCell>
        <mxCell id="_Q96MDX6_ETK-nk5UA62-196" value="Δ" style="rounded=0;whiteSpace=wrap;html=1;fillColor=#60a917;fontColor=#ffffff;strokeColor=#2D7600;" parent="1" vertex="1">
          <mxGeometry x="915" y="1660" width="80" height="60" as="geometry" />
        </mxCell>
        <mxCell id="_Q96MDX6_ETK-nk5UA62-197" value="Ε" style="rounded=0;whiteSpace=wrap;html=1;fillColor=#6a00ff;fontColor=#ffffff;strokeColor=#3700CC;" parent="1" vertex="1">
          <mxGeometry x="1115" y="1660" width="80" height="60" as="geometry" />
        </mxCell>
        <mxCell id="_Q96MDX6_ETK-nk5UA62-198" value="Ε" style="rounded=0;whiteSpace=wrap;html=1;fillColor=#6a00ff;fontColor=#ffffff;strokeColor=#3700CC;" parent="1" vertex="1">
          <mxGeometry x="1195" y="1660" width="40" height="60" as="geometry" />
        </mxCell>
        <mxCell id="_Q96MDX6_ETK-nk5UA62-199" value="&lt;b&gt;SRTF&lt;/b&gt;" style="text;html=1;align=center;verticalAlign=middle;resizable=0;points=[];autosize=1;strokeColor=none;fillColor=none;" parent="1" vertex="1">
          <mxGeometry x="115" y="1330" width="50" height="30" as="geometry" />
        </mxCell>
        <mxCell id="_Q96MDX6_ETK-nk5UA62-200" value="&lt;b&gt;RR&lt;/b&gt;" style="text;html=1;align=center;verticalAlign=middle;resizable=0;points=[];autosize=1;strokeColor=none;fillColor=none;" parent="1" vertex="1">
          <mxGeometry x="115" y="1600" width="40" height="30" as="geometry" />
        </mxCell>
        <mxCell id="_Q96MDX6_ETK-nk5UA62-201" value="" style="rounded=0;whiteSpace=wrap;html=1;direction=south;" parent="1" vertex="1">
          <mxGeometry x="120" y="2160" width="40" height="120" as="geometry" />
        </mxCell>
        <mxCell id="_Q96MDX6_ETK-nk5UA62-202" value="" style="rounded=0;whiteSpace=wrap;html=1;direction=south;" parent="1" vertex="1">
          <mxGeometry x="160" y="2160" width="40" height="120" as="geometry" />
        </mxCell>
        <mxCell id="_Q96MDX6_ETK-nk5UA62-203" value="" style="rounded=0;whiteSpace=wrap;html=1;direction=south;" parent="1" vertex="1">
          <mxGeometry x="200" y="2160" width="40" height="120" as="geometry" />
        </mxCell>
        <mxCell id="_Q96MDX6_ETK-nk5UA62-204" value="" style="rounded=0;whiteSpace=wrap;html=1;direction=south;" parent="1" vertex="1">
          <mxGeometry x="240" y="2160" width="40" height="120" as="geometry" />
        </mxCell>
        <mxCell id="_Q96MDX6_ETK-nk5UA62-205" value="" style="rounded=0;whiteSpace=wrap;html=1;direction=south;" parent="1" vertex="1">
          <mxGeometry x="280" y="2160" width="40" height="120" as="geometry" />
        </mxCell>
        <mxCell id="_Q96MDX6_ETK-nk5UA62-206" value="" style="rounded=0;whiteSpace=wrap;html=1;direction=south;" parent="1" vertex="1">
          <mxGeometry x="320" y="2160" width="40" height="120" as="geometry" />
        </mxCell>
        <mxCell id="_Q96MDX6_ETK-nk5UA62-207" value="" style="rounded=0;whiteSpace=wrap;html=1;direction=south;" parent="1" vertex="1">
          <mxGeometry x="360" y="2160" width="40" height="120" as="geometry" />
        </mxCell>
        <mxCell id="_Q96MDX6_ETK-nk5UA62-208" value="" style="rounded=0;whiteSpace=wrap;html=1;direction=south;" parent="1" vertex="1">
          <mxGeometry x="400" y="2160" width="40" height="120" as="geometry" />
        </mxCell>
        <mxCell id="_Q96MDX6_ETK-nk5UA62-209" value="" style="rounded=0;whiteSpace=wrap;html=1;direction=south;" parent="1" vertex="1">
          <mxGeometry x="440" y="2160" width="40" height="120" as="geometry" />
        </mxCell>
        <mxCell id="_Q96MDX6_ETK-nk5UA62-210" value="" style="rounded=0;whiteSpace=wrap;html=1;direction=south;" parent="1" vertex="1">
          <mxGeometry x="480" y="2160" width="40" height="120" as="geometry" />
        </mxCell>
        <mxCell id="_Q96MDX6_ETK-nk5UA62-211" value="" style="rounded=0;whiteSpace=wrap;html=1;direction=south;" parent="1" vertex="1">
          <mxGeometry x="520" y="2160" width="40" height="120" as="geometry" />
        </mxCell>
        <mxCell id="_Q96MDX6_ETK-nk5UA62-212" value="" style="rounded=0;whiteSpace=wrap;html=1;direction=south;" parent="1" vertex="1">
          <mxGeometry x="560" y="2160" width="40" height="120" as="geometry" />
        </mxCell>
        <mxCell id="_Q96MDX6_ETK-nk5UA62-213" value="" style="rounded=0;whiteSpace=wrap;html=1;direction=south;" parent="1" vertex="1">
          <mxGeometry x="600" y="2160" width="40" height="120" as="geometry" />
        </mxCell>
        <mxCell id="_Q96MDX6_ETK-nk5UA62-214" value="" style="rounded=0;whiteSpace=wrap;html=1;direction=south;" parent="1" vertex="1">
          <mxGeometry x="640" y="2160" width="40" height="120" as="geometry" />
        </mxCell>
        <mxCell id="_Q96MDX6_ETK-nk5UA62-215" value="" style="rounded=0;whiteSpace=wrap;html=1;direction=south;" parent="1" vertex="1">
          <mxGeometry x="680" y="2160" width="40" height="120" as="geometry" />
        </mxCell>
        <mxCell id="_Q96MDX6_ETK-nk5UA62-216" value="" style="rounded=0;whiteSpace=wrap;html=1;direction=south;" parent="1" vertex="1">
          <mxGeometry x="720" y="2160" width="40" height="120" as="geometry" />
        </mxCell>
        <mxCell id="_Q96MDX6_ETK-nk5UA62-217" value="" style="rounded=0;whiteSpace=wrap;html=1;direction=south;" parent="1" vertex="1">
          <mxGeometry x="760" y="2160" width="40" height="120" as="geometry" />
        </mxCell>
        <mxCell id="_Q96MDX6_ETK-nk5UA62-218" value="" style="rounded=0;whiteSpace=wrap;html=1;direction=south;" parent="1" vertex="1">
          <mxGeometry x="800" y="2160" width="40" height="120" as="geometry" />
        </mxCell>
        <mxCell id="_Q96MDX6_ETK-nk5UA62-219" value="" style="rounded=0;whiteSpace=wrap;html=1;direction=south;" parent="1" vertex="1">
          <mxGeometry x="840" y="2160" width="40" height="120" as="geometry" />
        </mxCell>
        <mxCell id="_Q96MDX6_ETK-nk5UA62-220" value="" style="rounded=0;whiteSpace=wrap;html=1;direction=south;" parent="1" vertex="1">
          <mxGeometry x="880" y="2160" width="40" height="120" as="geometry" />
        </mxCell>
        <mxCell id="_Q96MDX6_ETK-nk5UA62-221" value="" style="rounded=0;whiteSpace=wrap;html=1;direction=south;" parent="1" vertex="1">
          <mxGeometry x="920" y="2160" width="40" height="120" as="geometry" />
        </mxCell>
        <mxCell id="_Q96MDX6_ETK-nk5UA62-222" value="" style="rounded=0;whiteSpace=wrap;html=1;direction=south;" parent="1" vertex="1">
          <mxGeometry x="960" y="2160" width="40" height="120" as="geometry" />
        </mxCell>
        <mxCell id="_Q96MDX6_ETK-nk5UA62-223" value="" style="rounded=0;whiteSpace=wrap;html=1;direction=south;" parent="1" vertex="1">
          <mxGeometry x="1000" y="2160" width="40" height="120" as="geometry" />
        </mxCell>
        <mxCell id="_Q96MDX6_ETK-nk5UA62-224" value="" style="rounded=0;whiteSpace=wrap;html=1;direction=south;" parent="1" vertex="1">
          <mxGeometry x="1040" y="2160" width="40" height="120" as="geometry" />
        </mxCell>
        <mxCell id="_Q96MDX6_ETK-nk5UA62-225" value="" style="rounded=0;whiteSpace=wrap;html=1;direction=south;" parent="1" vertex="1">
          <mxGeometry x="1080" y="2160" width="40" height="120" as="geometry" />
        </mxCell>
        <mxCell id="_Q96MDX6_ETK-nk5UA62-226" value="" style="rounded=0;whiteSpace=wrap;html=1;direction=south;" parent="1" vertex="1">
          <mxGeometry x="1120" y="2160" width="40" height="120" as="geometry" />
        </mxCell>
        <mxCell id="_Q96MDX6_ETK-nk5UA62-227" value="" style="rounded=0;whiteSpace=wrap;html=1;direction=south;" parent="1" vertex="1">
          <mxGeometry x="1160" y="2160" width="40" height="120" as="geometry" />
        </mxCell>
        <mxCell id="_Q96MDX6_ETK-nk5UA62-228" value="" style="rounded=0;whiteSpace=wrap;html=1;direction=south;" parent="1" vertex="1">
          <mxGeometry x="1200" y="2160" width="40" height="120" as="geometry" />
        </mxCell>
        <mxCell id="_Q96MDX6_ETK-nk5UA62-229" value="Α" style="rounded=0;whiteSpace=wrap;html=1;fillColor=#1ba1e2;strokeColor=#006EAF;fontColor=#ffffff;" parent="1" vertex="1">
          <mxGeometry x="120" y="2190" width="80" height="60" as="geometry" />
        </mxCell>
        <mxCell id="_Q96MDX6_ETK-nk5UA62-233" value="Α" style="rounded=0;whiteSpace=wrap;html=1;fillColor=#1ba1e2;strokeColor=#006EAF;fontColor=#ffffff;" parent="1" vertex="1">
          <mxGeometry x="200" y="2190" width="80" height="60" as="geometry" />
        </mxCell>
        <mxCell id="_Q96MDX6_ETK-nk5UA62-259" value="&lt;b&gt;RR with Context Switch&lt;/b&gt;" style="text;html=1;align=center;verticalAlign=middle;resizable=0;points=[];autosize=1;strokeColor=none;fillColor=none;" parent="1" vertex="1">
          <mxGeometry x="122.5" y="2130" width="160" height="30" as="geometry" />
        </mxCell>
        <mxCell id="_Q96MDX6_ETK-nk5UA62-260" value="" style="rounded=0;whiteSpace=wrap;html=1;direction=south;" parent="1" vertex="1">
          <mxGeometry x="1240" y="2160" width="40" height="120" as="geometry" />
        </mxCell>
        <mxCell id="_Q96MDX6_ETK-nk5UA62-261" value="" style="rounded=0;whiteSpace=wrap;html=1;direction=south;" parent="1" vertex="1">
          <mxGeometry x="1440" y="2160" width="40" height="120" as="geometry" />
        </mxCell>
        <mxCell id="_Q96MDX6_ETK-nk5UA62-262" value="" style="rounded=0;whiteSpace=wrap;html=1;direction=south;" parent="1" vertex="1">
          <mxGeometry x="1400" y="2160" width="40" height="120" as="geometry" />
        </mxCell>
        <mxCell id="_Q96MDX6_ETK-nk5UA62-263" value="" style="rounded=0;whiteSpace=wrap;html=1;direction=south;" parent="1" vertex="1">
          <mxGeometry x="1360" y="2160" width="40" height="120" as="geometry" />
        </mxCell>
        <mxCell id="_Q96MDX6_ETK-nk5UA62-264" value="" style="rounded=0;whiteSpace=wrap;html=1;direction=south;" parent="1" vertex="1">
          <mxGeometry x="1320" y="2160" width="40" height="120" as="geometry" />
        </mxCell>
        <mxCell id="_Q96MDX6_ETK-nk5UA62-265" value="" style="rounded=0;whiteSpace=wrap;html=1;direction=south;" parent="1" vertex="1">
          <mxGeometry x="1280" y="2160" width="40" height="120" as="geometry" />
        </mxCell>
        <mxCell id="_Q96MDX6_ETK-nk5UA62-267" value="Β" style="rounded=0;whiteSpace=wrap;html=1;fillColor=#e51400;fontColor=#ffffff;strokeColor=#B20000;" parent="1" vertex="1">
          <mxGeometry x="850" y="2190" width="80" height="60" as="geometry" />
        </mxCell>
        <mxCell id="_Q96MDX6_ETK-nk5UA62-270" value="Α" style="rounded=0;whiteSpace=wrap;html=1;fillColor=#1ba1e2;strokeColor=#006EAF;fontColor=#ffffff;" parent="1" vertex="1">
          <mxGeometry x="1110" y="2190" width="80" height="60" as="geometry" />
        </mxCell>
        <mxCell id="_Q96MDX6_ETK-nk5UA62-271" value="Β" style="rounded=0;whiteSpace=wrap;html=1;fillColor=#e51400;fontColor=#ffffff;strokeColor=#B20000;" parent="1" vertex="1">
          <mxGeometry x="330" y="2190" width="80" height="60" as="geometry" />
        </mxCell>
        <mxCell id="_Q96MDX6_ETK-nk5UA62-272" value="Γ" style="rounded=0;whiteSpace=wrap;html=1;fillColor=#e3c800;fontColor=#000000;strokeColor=#B09500;" parent="1" vertex="1">
          <mxGeometry x="590" y="2190" width="80" height="60" as="geometry" />
        </mxCell>
        <mxCell id="_Q96MDX6_ETK-nk5UA62-273" value="Α" style="rounded=0;whiteSpace=wrap;html=1;fillColor=#1ba1e2;strokeColor=#006EAF;fontColor=#ffffff;" parent="1" vertex="1">
          <mxGeometry x="460" y="2190" width="80" height="60" as="geometry" />
        </mxCell>
        <mxCell id="_Q96MDX6_ETK-nk5UA62-275" value="Δ" style="rounded=0;whiteSpace=wrap;html=1;fillColor=#60a917;fontColor=#ffffff;strokeColor=#2D7600;" parent="1" vertex="1">
          <mxGeometry x="720" y="2190" width="80" height="60" as="geometry" />
        </mxCell>
        <mxCell id="_Q96MDX6_ETK-nk5UA62-276" value="Ε" style="rounded=0;whiteSpace=wrap;html=1;fillColor=#6a00ff;fontColor=#ffffff;strokeColor=#3700CC;" parent="1" vertex="1">
          <mxGeometry x="980" y="2190" width="80" height="60" as="geometry" />
        </mxCell>
        <mxCell id="_Q96MDX6_ETK-nk5UA62-290" value="" style="rounded=0;whiteSpace=wrap;html=1;direction=south;" parent="1" vertex="1">
          <mxGeometry x="1520" y="2160" width="40" height="120" as="geometry" />
        </mxCell>
        <mxCell id="_Q96MDX6_ETK-nk5UA62-291" value="" style="rounded=0;whiteSpace=wrap;html=1;direction=south;" parent="1" vertex="1">
          <mxGeometry x="1560" y="2160" width="40" height="120" as="geometry" />
        </mxCell>
        <mxCell id="_Q96MDX6_ETK-nk5UA62-292" value="" style="rounded=0;whiteSpace=wrap;html=1;direction=south;" parent="1" vertex="1">
          <mxGeometry x="1480" y="2160" width="40" height="120" as="geometry" />
        </mxCell>
        <mxCell id="_Q96MDX6_ETK-nk5UA62-268" value="Γ" style="rounded=0;whiteSpace=wrap;html=1;fillColor=#e3c800;fontColor=#000000;strokeColor=#B09500;" parent="1" vertex="1">
          <mxGeometry x="1240" y="2190" width="80" height="60" as="geometry" />
        </mxCell>
        <mxCell id="_Q96MDX6_ETK-nk5UA62-274" value="Ε" style="rounded=0;whiteSpace=wrap;html=1;fillColor=#6a00ff;fontColor=#ffffff;strokeColor=#3700CC;" parent="1" vertex="1">
          <mxGeometry x="1500" y="2190" width="80" height="60" as="geometry" />
        </mxCell>
        <mxCell id="_Q96MDX6_ETK-nk5UA62-266" value="ΕΝΑΛΛΑΓΗ" style="rounded=0;whiteSpace=wrap;html=1;fillColor=#647687;strokeColor=#314354;fontColor=#ffffff;" parent="1" vertex="1">
          <mxGeometry x="1190" y="2190" width="50" height="60" as="geometry" />
        </mxCell>
        <mxCell id="_Q96MDX6_ETK-nk5UA62-277" value="Δ" style="rounded=0;whiteSpace=wrap;html=1;fillColor=#60a917;fontColor=#ffffff;strokeColor=#2D7600;" parent="1" vertex="1">
          <mxGeometry x="1370" y="2190" width="80" height="60" as="geometry" />
        </mxCell>
        <mxCell id="_Q96MDX6_ETK-nk5UA62-365" value="31" style="text;html=1;align=center;verticalAlign=middle;resizable=0;points=[];autosize=1;strokeColor=none;fillColor=none;" parent="1" vertex="1">
          <mxGeometry x="1300" y="2280" width="40" height="30" as="geometry" />
        </mxCell>
        <mxCell id="_Q96MDX6_ETK-nk5UA62-366" value="32.25" style="text;html=1;align=center;verticalAlign=middle;resizable=0;points=[];autosize=1;strokeColor=none;fillColor=none;" parent="1" vertex="1">
          <mxGeometry x="1345" y="2280" width="50" height="30" as="geometry" />
        </mxCell>
        <mxCell id="_Q96MDX6_ETK-nk5UA62-367" value="34.25" style="text;html=1;align=center;verticalAlign=middle;resizable=0;points=[];autosize=1;strokeColor=none;fillColor=none;" parent="1" vertex="1">
          <mxGeometry x="1420" y="2280" width="50" height="30" as="geometry" />
        </mxCell>
        <mxCell id="_Q96MDX6_ETK-nk5UA62-368" value="37.5" style="text;html=1;align=center;verticalAlign=middle;resizable=0;points=[];autosize=1;strokeColor=none;fillColor=none;" parent="1" vertex="1">
          <mxGeometry x="1555" y="2280" width="50" height="30" as="geometry" />
        </mxCell>
        <mxCell id="_Q96MDX6_ETK-nk5UA62-369" value="0" style="text;html=1;align=center;verticalAlign=middle;resizable=0;points=[];autosize=1;strokeColor=none;fillColor=none;" parent="1" vertex="1">
          <mxGeometry x="102.5" y="1750" width="30" height="30" as="geometry" />
        </mxCell>
        <mxCell id="_Q96MDX6_ETK-nk5UA62-370" value="2" style="text;html=1;align=center;verticalAlign=middle;resizable=0;points=[];autosize=1;strokeColor=none;fillColor=none;" parent="1" vertex="1">
          <mxGeometry x="182.5" y="1750" width="30" height="30" as="geometry" />
        </mxCell>
        <mxCell id="_Q96MDX6_ETK-nk5UA62-371" value="4" style="text;html=1;align=center;verticalAlign=middle;resizable=0;points=[];autosize=1;strokeColor=none;fillColor=none;" parent="1" vertex="1">
          <mxGeometry x="262.5" y="1750" width="30" height="30" as="geometry" />
        </mxCell>
        <mxCell id="_Q96MDX6_ETK-nk5UA62-372" value="6" style="text;html=1;align=center;verticalAlign=middle;resizable=0;points=[];autosize=1;strokeColor=none;fillColor=none;" parent="1" vertex="1">
          <mxGeometry x="342.5" y="1750" width="30" height="30" as="geometry" />
        </mxCell>
        <mxCell id="_Q96MDX6_ETK-nk5UA62-373" value="8" style="text;html=1;align=center;verticalAlign=middle;resizable=0;points=[];autosize=1;strokeColor=none;fillColor=none;" parent="1" vertex="1">
          <mxGeometry x="422.5" y="1750" width="30" height="30" as="geometry" />
        </mxCell>
        <mxCell id="_Q96MDX6_ETK-nk5UA62-374" value="10" style="text;html=1;align=center;verticalAlign=middle;resizable=0;points=[];autosize=1;strokeColor=none;fillColor=none;" parent="1" vertex="1">
          <mxGeometry x="497.5" y="1750" width="40" height="30" as="geometry" />
        </mxCell>
        <mxCell id="_Q96MDX6_ETK-nk5UA62-375" value="12" style="text;html=1;align=center;verticalAlign=middle;resizable=0;points=[];autosize=1;strokeColor=none;fillColor=none;" parent="1" vertex="1">
          <mxGeometry x="577.5" y="1750" width="40" height="30" as="geometry" />
        </mxCell>
        <mxCell id="_Q96MDX6_ETK-nk5UA62-376" value="14" style="text;html=1;align=center;verticalAlign=middle;resizable=0;points=[];autosize=1;strokeColor=none;fillColor=none;" parent="1" vertex="1">
          <mxGeometry x="657.5" y="1750" width="40" height="30" as="geometry" />
        </mxCell>
        <mxCell id="_Q96MDX6_ETK-nk5UA62-377" value="16" style="text;html=1;align=center;verticalAlign=middle;resizable=0;points=[];autosize=1;strokeColor=none;fillColor=none;" parent="1" vertex="1">
          <mxGeometry x="737.5" y="1750" width="40" height="30" as="geometry" />
        </mxCell>
        <mxCell id="_Q96MDX6_ETK-nk5UA62-378" value="18" style="text;html=1;align=center;verticalAlign=middle;resizable=0;points=[];autosize=1;strokeColor=none;fillColor=none;" parent="1" vertex="1">
          <mxGeometry x="817.5" y="1750" width="40" height="30" as="geometry" />
        </mxCell>
        <mxCell id="_Q96MDX6_ETK-nk5UA62-379" value="20" style="text;html=1;align=center;verticalAlign=middle;resizable=0;points=[];autosize=1;strokeColor=none;fillColor=none;" parent="1" vertex="1">
          <mxGeometry x="897.5" y="1750" width="40" height="30" as="geometry" />
        </mxCell>
        <mxCell id="_Q96MDX6_ETK-nk5UA62-380" value="22" style="text;html=1;align=center;verticalAlign=middle;resizable=0;points=[];autosize=1;strokeColor=none;fillColor=none;" parent="1" vertex="1">
          <mxGeometry x="977.5" y="1750" width="40" height="30" as="geometry" />
        </mxCell>
        <mxCell id="_Q96MDX6_ETK-nk5UA62-381" value="24" style="text;html=1;align=center;verticalAlign=middle;resizable=0;points=[];autosize=1;strokeColor=none;fillColor=none;" parent="1" vertex="1">
          <mxGeometry x="1057.5" y="1750" width="40" height="30" as="geometry" />
        </mxCell>
        <mxCell id="_Q96MDX6_ETK-nk5UA62-382" value="25" style="text;html=1;align=center;verticalAlign=middle;resizable=0;points=[];autosize=1;strokeColor=none;fillColor=none;" parent="1" vertex="1">
          <mxGeometry x="1097.5" y="1750" width="40" height="30" as="geometry" />
        </mxCell>
        <mxCell id="_Q96MDX6_ETK-nk5UA62-383" value="28" style="text;html=1;align=center;verticalAlign=middle;resizable=0;points=[];autosize=1;strokeColor=none;fillColor=none;" parent="1" vertex="1">
          <mxGeometry x="1217.5" y="1750" width="40" height="30" as="geometry" />
        </mxCell>
        <mxCell id="xQzQh3xR5WA86IUahhT6-2" value="ΕΝΑΛΛΑΓΗ" style="rounded=0;whiteSpace=wrap;html=1;fillColor=#647687;strokeColor=#314354;fontColor=#ffffff;" vertex="1" parent="1">
          <mxGeometry x="1320" y="2190" width="50" height="60" as="geometry" />
        </mxCell>
        <mxCell id="xQzQh3xR5WA86IUahhT6-3" value="ΕΝΑΛΛΑΓΗ" style="rounded=0;whiteSpace=wrap;html=1;fillColor=#647687;strokeColor=#314354;fontColor=#ffffff;" vertex="1" parent="1">
          <mxGeometry x="1060" y="2190" width="50" height="60" as="geometry" />
        </mxCell>
        <mxCell id="xQzQh3xR5WA86IUahhT6-4" value="ΕΝΑΛΛΑΓΗ" style="rounded=0;whiteSpace=wrap;html=1;fillColor=#647687;strokeColor=#314354;fontColor=#ffffff;" vertex="1" parent="1">
          <mxGeometry x="930" y="2190" width="50" height="60" as="geometry" />
        </mxCell>
        <mxCell id="xQzQh3xR5WA86IUahhT6-5" value="ΕΝΑΛΛΑΓΗ" style="rounded=0;whiteSpace=wrap;html=1;fillColor=#647687;strokeColor=#314354;fontColor=#ffffff;" vertex="1" parent="1">
          <mxGeometry x="800" y="2190" width="50" height="60" as="geometry" />
        </mxCell>
        <mxCell id="xQzQh3xR5WA86IUahhT6-6" value="ΕΝΑΛΛΑΓΗ" style="rounded=0;whiteSpace=wrap;html=1;fillColor=#647687;strokeColor=#314354;fontColor=#ffffff;" vertex="1" parent="1">
          <mxGeometry x="670" y="2190" width="50" height="60" as="geometry" />
        </mxCell>
        <mxCell id="xQzQh3xR5WA86IUahhT6-7" value="ΕΝΑΛΛΑΓΗ" style="rounded=0;whiteSpace=wrap;html=1;fillColor=#647687;strokeColor=#314354;fontColor=#ffffff;" vertex="1" parent="1">
          <mxGeometry x="540" y="2190" width="50" height="60" as="geometry" />
        </mxCell>
        <mxCell id="xQzQh3xR5WA86IUahhT6-8" value="ΕΝΑΛΛΑΓΗ" style="rounded=0;whiteSpace=wrap;html=1;fillColor=#647687;strokeColor=#314354;fontColor=#ffffff;" vertex="1" parent="1">
          <mxGeometry x="410" y="2190" width="50" height="60" as="geometry" />
        </mxCell>
        <mxCell id="xQzQh3xR5WA86IUahhT6-9" value="ΕΝΑΛΛΑΓΗ" style="rounded=0;whiteSpace=wrap;html=1;fillColor=#647687;strokeColor=#314354;fontColor=#ffffff;" vertex="1" parent="1">
          <mxGeometry x="280" y="2190" width="50" height="60" as="geometry" />
        </mxCell>
        <mxCell id="xQzQh3xR5WA86IUahhT6-14" value="ΕΝΑΛΛΑΓΗ" style="rounded=0;whiteSpace=wrap;html=1;fillColor=#647687;strokeColor=#314354;fontColor=#ffffff;" vertex="1" parent="1">
          <mxGeometry x="1450" y="2190" width="50" height="60" as="geometry" />
        </mxCell>
        <mxCell id="xQzQh3xR5WA86IUahhT6-16" value="" style="rounded=0;whiteSpace=wrap;html=1;direction=south;" vertex="1" parent="1">
          <mxGeometry x="1680" y="2160" width="40" height="120" as="geometry" />
        </mxCell>
        <mxCell id="xQzQh3xR5WA86IUahhT6-17" value="" style="rounded=0;whiteSpace=wrap;html=1;direction=south;" vertex="1" parent="1">
          <mxGeometry x="1600" y="2160" width="40" height="120" as="geometry" />
        </mxCell>
        <mxCell id="xQzQh3xR5WA86IUahhT6-13" value="ΕΝΑΛΛΑΓΗ" style="rounded=0;whiteSpace=wrap;html=1;fillColor=#647687;strokeColor=#314354;fontColor=#ffffff;" vertex="1" parent="1">
          <mxGeometry x="1580" y="2190" width="50" height="60" as="geometry" />
        </mxCell>
        <mxCell id="xQzQh3xR5WA86IUahhT6-15" value="" style="rounded=0;whiteSpace=wrap;html=1;direction=south;" vertex="1" parent="1">
          <mxGeometry x="1640" y="2160" width="40" height="120" as="geometry" />
        </mxCell>
        <mxCell id="_Q96MDX6_ETK-nk5UA62-269" value="Δ" style="rounded=0;whiteSpace=wrap;html=1;fillColor=#60a917;fontColor=#ffffff;strokeColor=#2D7600;" parent="1" vertex="1">
          <mxGeometry x="1630" y="2190" width="40" height="60" as="geometry" />
        </mxCell>
        <mxCell id="xQzQh3xR5WA86IUahhT6-10" value="ΕΝΑΛΛΑΓΗ" style="rounded=0;whiteSpace=wrap;html=1;fillColor=#647687;strokeColor=#314354;fontColor=#ffffff;" vertex="1" parent="1">
          <mxGeometry x="1670" y="2190" width="50" height="60" as="geometry" />
        </mxCell>
        <mxCell id="xQzQh3xR5WA86IUahhT6-18" value="" style="rounded=0;whiteSpace=wrap;html=1;direction=south;" vertex="1" parent="1">
          <mxGeometry x="1760" y="2160" width="40" height="120" as="geometry" />
        </mxCell>
        <mxCell id="xQzQh3xR5WA86IUahhT6-19" value="" style="rounded=0;whiteSpace=wrap;html=1;direction=south;" vertex="1" parent="1">
          <mxGeometry x="1800" y="2160" width="40" height="120" as="geometry" />
        </mxCell>
        <mxCell id="xQzQh3xR5WA86IUahhT6-20" value="" style="rounded=0;whiteSpace=wrap;html=1;direction=south;" vertex="1" parent="1">
          <mxGeometry x="1720" y="2160" width="40" height="120" as="geometry" />
        </mxCell>
        <mxCell id="_Q96MDX6_ETK-nk5UA62-278" value="Ε" style="rounded=0;whiteSpace=wrap;html=1;fillColor=#6a00ff;fontColor=#ffffff;strokeColor=#3700CC;" parent="1" vertex="1">
          <mxGeometry x="1720" y="2190" width="80" height="60" as="geometry" />
        </mxCell>
        <mxCell id="_Q96MDX6_ETK-nk5UA62-279" value="Ε" style="rounded=0;whiteSpace=wrap;html=1;fillColor=#6a00ff;fontColor=#ffffff;strokeColor=#3700CC;" parent="1" vertex="1">
          <mxGeometry x="1800" y="2190" width="40" height="60" as="geometry" />
        </mxCell>
        <mxCell id="xQzQh3xR5WA86IUahhT6-21" value="8.5" style="text;html=1;align=center;verticalAlign=middle;resizable=0;points=[];autosize=1;strokeColor=none;fillColor=none;" vertex="1" parent="1">
          <mxGeometry x="440" y="2280" width="40" height="30" as="geometry" />
        </mxCell>
        <mxCell id="xQzQh3xR5WA86IUahhT6-22" value="15" style="text;html=1;align=center;verticalAlign=middle;resizable=0;points=[];autosize=1;strokeColor=none;fillColor=none;" vertex="1" parent="1">
          <mxGeometry x="700" y="2280" width="40" height="30" as="geometry" />
        </mxCell>
        <mxCell id="xQzQh3xR5WA86IUahhT6-23" value="24.75" style="text;html=1;align=center;verticalAlign=middle;resizable=0;points=[];autosize=1;strokeColor=none;fillColor=none;" vertex="1" parent="1">
          <mxGeometry x="1085" y="2280" width="50" height="30" as="geometry" />
        </mxCell>
        <mxCell id="xQzQh3xR5WA86IUahhT6-24" value="35.5" style="text;html=1;align=center;verticalAlign=middle;resizable=0;points=[];autosize=1;strokeColor=none;fillColor=none;" vertex="1" parent="1">
          <mxGeometry x="1475" y="2280" width="50" height="30" as="geometry" />
        </mxCell>
        <mxCell id="xQzQh3xR5WA86IUahhT6-25" value="38.75" style="text;html=1;align=center;verticalAlign=middle;resizable=0;points=[];autosize=1;strokeColor=none;fillColor=none;" vertex="1" parent="1">
          <mxGeometry x="1605" y="2280" width="50" height="30" as="geometry" />
        </mxCell>
        <mxCell id="xQzQh3xR5WA86IUahhT6-26" value="39.75" style="text;html=1;align=center;verticalAlign=middle;resizable=0;points=[];autosize=1;strokeColor=none;fillColor=none;" vertex="1" parent="1">
          <mxGeometry x="1640" y="2280" width="50" height="30" as="geometry" />
        </mxCell>
        <mxCell id="xQzQh3xR5WA86IUahhT6-27" value="41" style="text;html=1;align=center;verticalAlign=middle;resizable=0;points=[];autosize=1;strokeColor=none;fillColor=none;" vertex="1" parent="1">
          <mxGeometry x="1700" y="2280" width="40" height="30" as="geometry" />
        </mxCell>
        <mxCell id="xQzQh3xR5WA86IUahhT6-28" value="44" style="text;html=1;align=center;verticalAlign=middle;resizable=0;points=[];autosize=1;strokeColor=none;fillColor=none;" vertex="1" parent="1">
          <mxGeometry x="1820" y="2280" width="40" height="30" as="geometry" />
        </mxCell>
      </root>
    </mxGraphModel>
  </diagram>
</mxfile>
